<svg xmlns="http://www.w3.org/2000/svg" viewBox="0 0 146.68 21.12"><defs><style>.cls-1{fill:#fff;}</style></defs><g id="레이어_2" data-name="레이어 2"><g id="레이어_1-2" data-name="레이어 1"><path class="cls-1" d="M15.55,10.91a12.4,12.4,0,0,1-.63,4,8.82,8.82,0,0,1-1.82,3.16,8.18,8.18,0,0,1-2.94,2,10.11,10.11,0,0,1-4,.73H0V.93H6.19a10.29,10.29,0,0,1,4,.73A8.08,8.08,0,0,1,13.1,3.71a8.74,8.74,0,0,1,1.82,3.16A12.36,12.36,0,0,1,15.55,10.91Zm-2.88,0a10.17,10.17,0,0,0-.43-3.07A6.68,6.68,0,0,0,11,5.45,5.67,5.67,0,0,0,8.88,3.91,7.38,7.38,0,0,0,6,3.37H2.88V18.44H6a7.38,7.38,0,0,0,2.92-.54A5.67,5.67,0,0,0,11,16.36,6.72,6.72,0,0,0,12.24,14,10.26,10.26,0,0,0,12.67,10.91Z"/><path class="cls-1" d="M41.53,20.88V.41H44.4V20.88Z"/><path class="cls-1" d="M48,2A1.92,1.92,0,0,1,48.61.58,2,2,0,0,1,50,0a1.92,1.92,0,0,1,1.41.58A1.93,1.93,0,0,1,52,2a1.93,1.93,0,0,1-.59,1.41A1.89,1.89,0,0,1,50,4a1.92,1.92,0,0,1-1.41-.58A1.92,1.92,0,0,1,48,2Zm.57,18.88V6.06h2.87V20.88Z"/><path class="cls-1" d="M64.79,20.88V11.63a4.54,4.54,0,0,0-.65-2.58A2.38,2.38,0,0,0,62,8.11a2.85,2.85,0,0,0-1.21.27,3,3,0,0,0-1,.8A4.34,4.34,0,0,0,59,10.51a5.3,5.3,0,0,0-.29,1.82v8.55H55.88V6.06H58.7v1a5.4,5.4,0,0,1,1.66-1,5.49,5.49,0,0,1,2.07-.37,5.38,5.38,0,0,1,2.5.55,4.54,4.54,0,0,1,1.75,1.53,5.44,5.44,0,0,1,2.15-1.58,6.61,6.61,0,0,1,2.51-.5,5,5,0,0,1,3.85,1.52,6.1,6.1,0,0,1,1.39,4.26v9.43H73.7V11.63a4.54,4.54,0,0,0-.65-2.58,2.38,2.38,0,0,0-2.12-.94,2.92,2.92,0,0,0-1.18.26,3.17,3.17,0,0,0-1,.76A4.06,4.06,0,0,0,68,10.39a5.08,5.08,0,0,0-.31,1.73v8.76Z"/><path class="cls-1" d="M100.9,20.88l-2.07-5.49h-8l-2.07,5.49h-3L93.44.93h2.8l7.67,20Zm-9.12-7.95H97.9L94.84,4.87Z"/><path class="cls-1" d="M115.51,20.49v-1a5.86,5.86,0,0,1-1.8,1,6.53,6.53,0,0,1-2.19.36,5.52,5.52,0,0,1-4.13-1.51,5.83,5.83,0,0,1-1.49-4.26V5.68h2.88v9.24a4.16,4.16,0,0,0,.71,2.58,2.77,2.77,0,0,0,2.37.95,3.47,3.47,0,0,0,2.47-1.08,4,4,0,0,0,.82-1.32,4.91,4.91,0,0,0,.31-1.83V5.68h2.88V20.49Z"/><path class="cls-1" d="M127.82,20.88a4.09,4.09,0,0,1-3-.93,4.3,4.3,0,0,1-.9-3.06V8.24h-2.85V5.8h2.85V2.07h2.87V5.8h3.45V8.24h-3.45v8.65a1.94,1.94,0,0,0,.29,1.22,1.31,1.31,0,0,0,1,.34,8.86,8.86,0,0,0,1-.07c.35,0,.75-.11,1.18-.19v2.46A14.55,14.55,0,0,1,127.82,20.88Z"/><path class="cls-1" d="M146.68,13.08a9.35,9.35,0,0,1-.53,3.23,7.33,7.33,0,0,1-1.48,2.45,6.76,6.76,0,0,1-2.25,1.57,7.74,7.74,0,0,1-5.73,0,6.76,6.76,0,0,1-2.25-1.57A7.33,7.33,0,0,1,133,16.31a9.35,9.35,0,0,1-.53-3.23A9.33,9.33,0,0,1,133,9.86a7.23,7.23,0,0,1,1.48-2.45,6.62,6.62,0,0,1,2.25-1.57,7.74,7.74,0,0,1,5.73,0,6.62,6.62,0,0,1,2.25,1.57,7.23,7.23,0,0,1,1.48,2.45A9.33,9.33,0,0,1,146.68,13.08Zm-2.88,0a7.13,7.13,0,0,0-.3-2.11,4.91,4.91,0,0,0-.84-1.68,3.65,3.65,0,0,0-1.33-1.11,4,4,0,0,0-3.55,0,3.65,3.65,0,0,0-1.33,1.11A5.11,5.11,0,0,0,135.6,11a7.13,7.13,0,0,0-.29,2.11,7.2,7.2,0,0,0,.29,2.12,5.21,5.21,0,0,0,.85,1.68A3.75,3.75,0,0,0,137.78,18a4,4,0,0,0,3.55,0,3.75,3.75,0,0,0,1.33-1.11,5,5,0,0,0,.84-1.68A7.19,7.19,0,0,0,143.8,13.08Z"/><path class="cls-1" d="M30.31,20.52q-.21-1.14-.3-2.1c0-.4,0-.76-.06-1.13a2,2,0,0,0,.4.51,3.35,3.35,0,0,0,2,.64A4.92,4.92,0,0,0,34.5,18a7.26,7.26,0,0,0,2.16-1.48l1.56,2.08c-.42.34-.83.66-1.25.94a6.53,6.53,0,0,1-1.33.71,8.21,8.21,0,0,1-1.53.44,9.06,9.06,0,0,1-1.8.16,4.64,4.64,0,0,1-1.83-.27Z"/><path class="cls-1" d="M29.52,8a4.59,4.59,0,0,1,.38,1.77,3.13,3.13,0,0,1,.72-1.11,4.06,4.06,0,0,1,2.91-1,2.28,2.28,0,0,1,1.68.61,2.4,2.4,0,0,1,.6,1.75,2.32,2.32,0,0,1-1.61,2.27,10.85,10.85,0,0,1-4.28.53v2.43A16.63,16.63,0,0,0,33.86,15a8.18,8.18,0,0,0,2.82-1.09,4.23,4.23,0,0,0,1.54-1.73A5.28,5.28,0,0,0,38.68,10,4.46,4.46,0,0,0,37.35,6.5a5.2,5.2,0,0,0-3.64-1.21,8.79,8.79,0,0,0-2.39.31,5.38,5.38,0,0,0-2,1.06c0-.14-.06-.27-.1-.4s-.09-.34-.18-.61H26.66a5.32,5.32,0,0,1,1.72.91A4,4,0,0,1,29.52,8Z"/><path class="cls-1" d="M29.3,18.66c0-.4,0-.76-.05-1.13s0-.47,0-.68V10.22a1.11,1.11,0,0,0,0-.19,4.59,4.59,0,0,0-.38-1.77A4,4,0,0,0,27.67,6.8,5.37,5.37,0,0,0,26,5.89l-.06,0a7.57,7.57,0,0,0-2.28-.33,9.92,9.92,0,0,0-1.8.15,8.55,8.55,0,0,0-1.53.44A6.64,6.64,0,0,0,19,6.84c-.41.28-.83.6-1.24.94l1.55,2.07a7.31,7.31,0,0,1,2.17-1.47A5,5,0,0,1,23.62,8a3.35,3.35,0,0,1,1.95.65,1.73,1.73,0,0,1,.4.5,2.09,2.09,0,0,1,.37,1.18v.83c-.12,0-.22,0-.33,0a17.31,17.31,0,0,0-4,.27,8.63,8.63,0,0,0-2.81,1.09,4.17,4.17,0,0,0-1.54,1.74,5.28,5.28,0,0,0-.47,2.21,4.45,4.45,0,0,0,1.34,3.47,5.15,5.15,0,0,0,3.64,1.22,8.72,8.72,0,0,0,2.38-.31,5.45,5.45,0,0,0,2-1.06c0,.14.07.27.1.4l.19.61H29.6Q29.39,19.62,29.3,18.66Zm-3-3.83A4.86,4.86,0,0,1,26,16.62a3.16,3.16,0,0,1-.73,1.11,4,4,0,0,1-2.9,1,2.21,2.21,0,0,1-1.68-.61,2.36,2.36,0,0,1-.6-1.74,2.31,2.31,0,0,1,1.61-2.27A10.77,10.77,0,0,1,26,13.55h.33Z"/></g></g></svg>