<svg xmlns="http://www.w3.org/2000/svg" viewBox="0 0 151.12 21.12"><defs><style>.cls-1{fill:none;}.cls-2{fill:#3b6cfc;}</style></defs><g id="레이어_2" data-name="레이어 2"><g id="레이어_1-2" data-name="레이어 1"><path d="M49.42,8.3a5.75,5.75,0,0,0-2-.14,3.2,3.2,0,0,0-1.6.61,3.42,3.42,0,0,0-1,1.35,5.12,5.12,0,0,0-.38,2.06v8.4H41.53V6h2.78v1a5.47,5.47,0,0,1,2.4-1.21,6.75,6.75,0,0,1,2.86,0Z"/><path d="M51.86,2a1.93,1.93,0,0,1,.58-1.4,2,2,0,0,1,2.78,0A1.93,1.93,0,0,1,55.8,2a1.93,1.93,0,0,1-.58,1.39,2,2,0,0,1-2.78,0A1.93,1.93,0,0,1,51.86,2Zm.57,18.61V6h2.83V20.58Z"/><path d="M68.39,20.58V11.46a4.5,4.5,0,0,0-.64-2.54A2.37,2.37,0,0,0,65.65,8a2.79,2.79,0,0,0-1.19.27,3.06,3.06,0,0,0-1,.79,4.15,4.15,0,0,0-.72,1.3,5.23,5.23,0,0,0-.28,1.8v8.43H59.6V6h2.78v1a5.44,5.44,0,0,1,3.68-1.35,5.31,5.31,0,0,1,2.46.54,4.57,4.57,0,0,1,1.73,1.5,5.46,5.46,0,0,1,2.12-1.55,6.4,6.4,0,0,1,2.47-.49,4.86,4.86,0,0,1,3.79,1.5A6,6,0,0,1,80,11.29v9.29H77.17V11.46a4.5,4.5,0,0,0-.64-2.54A2.35,2.35,0,0,0,74.44,8a2.88,2.88,0,0,0-1.17.26,3.06,3.06,0,0,0-1,.75,3.84,3.84,0,0,0-.73,1.24,5.44,5.44,0,0,0-.3,1.71v8.63Z"/><path d="M15.55,10.91a12.4,12.4,0,0,1-.63,4,8.82,8.82,0,0,1-1.82,3.16,8.18,8.18,0,0,1-2.94,2,10.11,10.11,0,0,1-4,.73H0V.93H6.19a10.29,10.29,0,0,1,4,.73A8.08,8.08,0,0,1,13.1,3.71a8.74,8.74,0,0,1,1.82,3.16A12.36,12.36,0,0,1,15.55,10.91Zm-2.88,0a10.17,10.17,0,0,0-.43-3.07A6.68,6.68,0,0,0,11,5.45,5.67,5.67,0,0,0,8.88,3.91,7.38,7.38,0,0,0,6,3.37H2.88V18.44H6a7.38,7.38,0,0,0,2.92-.54A5.67,5.67,0,0,0,11,16.36,6.72,6.72,0,0,0,12.24,14,10.26,10.26,0,0,0,12.67,10.91Z"/><path d="M105.35,20.88l-2.08-5.49h-8l-2.07,5.49h-3L97.88.93h2.8l7.67,20Zm-9.12-7.95h6.11L99.28,4.87Z"/><path d="M120,20.49v-1a5.86,5.86,0,0,1-1.8,1,6.62,6.62,0,0,1-2.19.36,5.56,5.56,0,0,1-4.14-1.51,5.83,5.83,0,0,1-1.48-4.26V5.68h2.87v9.24a4.23,4.23,0,0,0,.71,2.58,2.79,2.79,0,0,0,2.37.95,3.47,3.47,0,0,0,2.48-1.08,3.93,3.93,0,0,0,.81-1.32,4.9,4.9,0,0,0,.32-1.83V5.68h2.87V20.49Z"/><path d="M132.26,20.88a4.05,4.05,0,0,1-3-.93,4.26,4.26,0,0,1-.91-3.06V8.24H125.5V5.8h2.85V2.07h2.88V5.8h3.44V8.24h-3.44v8.65a2,2,0,0,0,.28,1.22,1.34,1.34,0,0,0,1,.34,8.69,8.69,0,0,0,.94-.07c.36,0,.75-.11,1.18-.19v2.46A14.45,14.45,0,0,1,132.26,20.88Z"/><path d="M151.12,13.08a9.35,9.35,0,0,1-.53,3.23,7.17,7.17,0,0,1-1.48,2.45,6.76,6.76,0,0,1-2.25,1.57,7.22,7.22,0,0,1-2.86.55,7.3,7.3,0,0,1-2.87-.55,6.76,6.76,0,0,1-2.25-1.57,7.15,7.15,0,0,1-1.47-2.45,9.12,9.12,0,0,1-.54-3.23,9.1,9.1,0,0,1,.54-3.22,7.06,7.06,0,0,1,1.47-2.45,6.62,6.62,0,0,1,2.25-1.57A7.3,7.3,0,0,1,144,5.29a7.22,7.22,0,0,1,2.86.55,6.62,6.62,0,0,1,2.25,1.57,7.08,7.08,0,0,1,1.48,2.45A9.33,9.33,0,0,1,151.12,13.08Zm-2.87,0A7.13,7.13,0,0,0,148,11a5.29,5.29,0,0,0-.84-1.68,3.77,3.77,0,0,0-1.34-1.11A3.82,3.82,0,0,0,144,7.77a3.86,3.86,0,0,0-1.78.41,3.74,3.74,0,0,0-1.33,1.11,5.29,5.29,0,0,0-.84,1.68,7.61,7.61,0,0,0,0,4.23,5.4,5.4,0,0,0,.84,1.68,3.92,3.92,0,0,0,6.22,0A5.4,5.4,0,0,0,148,15.2,7.19,7.19,0,0,0,148.25,13.08Z"/><path class="cls-1" d="M34.2,12.32a2.32,2.32,0,0,0,1.61-2.27,2.4,2.4,0,0,0-.6-1.75,2.28,2.28,0,0,0-1.68-.61,4.06,4.06,0,0,0-2.91,1,3.13,3.13,0,0,0-.72,1.11c0,.07,0,.12,0,.19v2.87A10.85,10.85,0,0,0,34.2,12.32Z"/><path class="cls-2" d="M30.31,20.52q-.21-1.14-.3-2.1c0-.4,0-.76-.06-1.13a2,2,0,0,0,.4.51,3.35,3.35,0,0,0,2,.64A4.92,4.92,0,0,0,34.5,18a7.26,7.26,0,0,0,2.16-1.48l1.56,2.08c-.42.34-.83.66-1.25.94a6.53,6.53,0,0,1-1.33.71,8.21,8.21,0,0,1-1.53.44,9.06,9.06,0,0,1-1.8.16,4.64,4.64,0,0,1-1.83-.27Z"/><path class="cls-2" d="M29.52,8a4.59,4.59,0,0,1,.38,1.77,3.13,3.13,0,0,1,.72-1.11,4.06,4.06,0,0,1,2.91-1,2.28,2.28,0,0,1,1.68.61,2.4,2.4,0,0,1,.6,1.75,2.32,2.32,0,0,1-1.61,2.27,10.85,10.85,0,0,1-4.28.53v2.43A16.63,16.63,0,0,0,33.86,15a8.18,8.18,0,0,0,2.82-1.09,4.23,4.23,0,0,0,1.54-1.73A5.28,5.28,0,0,0,38.68,10,4.46,4.46,0,0,0,37.35,6.5a5.2,5.2,0,0,0-3.64-1.21,8.79,8.79,0,0,0-2.39.31,5.38,5.38,0,0,0-2,1.06c0-.14-.06-.27-.1-.4s-.09-.34-.18-.61H26.66a5.32,5.32,0,0,1,1.72.91A4,4,0,0,1,29.52,8Z"/><path d="M29.3,18.66c0-.4,0-.76-.05-1.13s0-.47,0-.68V10.22a1.11,1.11,0,0,0,0-.19,4.59,4.59,0,0,0-.38-1.77A4,4,0,0,0,27.67,6.8,5.37,5.37,0,0,0,26,5.89l-.06,0a7.57,7.57,0,0,0-2.28-.33,9.92,9.92,0,0,0-1.8.15,8.55,8.55,0,0,0-1.53.44A6.64,6.64,0,0,0,19,6.84c-.41.28-.83.6-1.24.94l1.55,2.07a7.31,7.31,0,0,1,2.17-1.47A5,5,0,0,1,23.62,8a3.35,3.35,0,0,1,1.95.65,1.73,1.73,0,0,1,.4.5,2.09,2.09,0,0,1,.37,1.18v.83c-.12,0-.22,0-.33,0a17.31,17.31,0,0,0-4,.27,8.63,8.63,0,0,0-2.81,1.09,4.17,4.17,0,0,0-1.54,1.74,5.28,5.28,0,0,0-.47,2.21,4.45,4.45,0,0,0,1.34,3.47,5.15,5.15,0,0,0,3.64,1.22,8.72,8.72,0,0,0,2.38-.31,5.45,5.45,0,0,0,2-1.06c0,.14.07.27.1.4l.19.61H29.6Q29.39,19.62,29.3,18.66Zm-3-3.83A4.86,4.86,0,0,1,26,16.62a3.16,3.16,0,0,1-.73,1.11,4,4,0,0,1-2.9,1,2.21,2.21,0,0,1-1.68-.61,2.36,2.36,0,0,1-.6-1.74,2.31,2.31,0,0,1,1.61-2.27A10.77,10.77,0,0,1,26,13.55h.33Z"/></g></g></svg>